<svg width="35" height="19" viewBox="0 0 35 19" fill="none" xmlns="http://www.w3.org/2000/svg">
<path d="M0.176 19V16.6L6.32 10.576C6.864 10.048 7.304 9.56 7.64 9.112C7.976 8.664 8.224 8.224 8.384 7.792C8.544 7.344 8.624 6.856 8.624 6.328C8.624 5.848 8.528 5.432 8.336 5.08C8.16 4.712 7.848 4.432 7.4 4.24C6.968 4.048 6.36 3.952 5.576 3.952H0.656V1.624C1.408 1.496 2.24 1.384 3.152 1.288C4.08 1.192 5.088 1.144 6.176 1.144C7.552 1.144 8.632 1.336 9.416 1.72C10.2 2.088 10.76 2.632 11.096 3.352C11.432 4.056 11.6 4.896 11.6 5.872C11.6 6.672 11.488 7.408 11.264 8.08C11.056 8.752 10.728 9.4 10.28 10.024C9.848 10.632 9.296 11.264 8.624 11.92L4.136 16.312H12.176V19H0.176ZM22.2528 18.976V14.968H14.2848L13.7088 13.504L19.7808 1.288H22.8288L17.2128 12.448H22.2528V8.536L22.8768 6.64H25.2288V12.448H27.2688V14.488L25.2288 14.968V18.976H22.2528ZM31.6693 7.336C30.7093 7.336 29.9093 7.024 29.2693 6.4C28.6293 5.776 28.3093 4.968 28.3093 3.976C28.3093 3.304 28.4533 2.72 28.7413 2.224C29.0453 1.712 29.4453 1.312 29.9413 1.024C30.4533 0.736 31.0293 0.592 31.6693 0.592C32.6613 0.592 33.4613 0.911999 34.0693 1.552C34.6773 2.176 34.9813 2.984 34.9813 3.976C34.9813 4.968 34.6773 5.776 34.0693 6.4C33.4613 7.024 32.6613 7.336 31.6693 7.336ZM31.6693 5.968C32.2453 5.968 32.7093 5.784 33.0613 5.416C33.4293 5.032 33.6133 4.552 33.6133 3.976C33.6133 3.384 33.4293 2.904 33.0613 2.536C32.7093 2.152 32.2453 1.96 31.6693 1.96C31.0933 1.96 30.6133 2.152 30.2293 2.536C29.8613 2.904 29.6773 3.384 29.6773 3.976C29.6773 4.552 29.8613 5.032 30.2293 5.416C30.6133 5.784 31.0933 5.968 31.6693 5.968Z" fill="white"/>
</svg>
